<?xml version="1.0" encoding="UTF-8"?>
<svg xmlns="http://www.w3.org/2000/svg" xmlns:xlink="http://www.w3.org/1999/xlink" width="20pt" height="20pt" viewBox="0 0 20 20" version="1.1">
<g id="surface1">
<path style=" stroke:none;fill-rule:nonzero;fill:rgb(32.156863%,80%,60%);fill-opacity:1;" d="M 12.996094 2.09375 L 5.417969 2.09375 L 5.417969 4.292969 L 3.949219 4.292969 L 3.949219 17.90625 L 14.582031 17.90625 L 14.582031 15.707031 L 16.050781 15.707031 L 16.050781 4.386719 Z M 13.074219 2.613281 L 15.347656 4.316406 L 13.0625 4.316406 Z M 14.21875 15.339844 L 14.21875 17.539062 L 4.316406 17.539062 L 4.316406 4.660156 L 11.242188 4.660156 L 11.226562 6.882812 L 14.21875 6.882812 Z M 11.59375 6.515625 L 11.609375 4.8125 L 13.878906 6.515625 Z M 15.683594 15.339844 L 14.582031 15.339844 L 14.582031 6.585938 L 11.527344 4.292969 L 5.78125 4.292969 L 5.78125 2.460938 L 12.710938 2.460938 L 12.691406 4.683594 L 15.683594 4.683594 Z M 15.683594 15.339844 "/>
<path style=" stroke:none;fill-rule:nonzero;fill:rgb(32.156863%,80%,60%);fill-opacity:1;" d="M 5.78125 8.136719 L 9.242188 8.136719 L 9.242188 7.769531 L 5.578125 7.769531 L 5.578125 8.136719 Z M 5.78125 8.136719 "/>
<path style=" stroke:none;fill-rule:nonzero;fill:rgb(32.156863%,80%,60%);fill-opacity:1;" d="M 5.601562 9.238281 L 5.578125 9.238281 L 5.578125 9.605469 L 12.910156 9.605469 L 12.910156 9.238281 Z M 5.601562 9.238281 "/>
<path style=" stroke:none;fill-rule:nonzero;fill:rgb(32.156863%,80%,60%);fill-opacity:1;" d="M 5.601562 10.703125 L 5.578125 10.703125 L 5.578125 11.070312 L 12.910156 11.070312 L 12.910156 10.703125 Z M 5.601562 10.703125 "/>
<path style=" stroke:none;fill-rule:nonzero;fill:rgb(32.156863%,80%,60%);fill-opacity:1;" d="M 5.601562 12.171875 L 5.578125 12.171875 L 5.578125 12.539062 L 12.910156 12.539062 L 12.910156 12.171875 Z M 5.601562 12.171875 "/>
<path style=" stroke:none;fill-rule:nonzero;fill:rgb(32.156863%,80%,60%);fill-opacity:1;" d="M 5.601562 13.636719 L 5.578125 13.636719 L 5.578125 14.003906 L 12.910156 14.003906 L 12.910156 13.636719 Z M 5.601562 13.636719 "/>
</g>
</svg>
