<?xml version="1.0" encoding="UTF-8"?>
<svg xmlns="http://www.w3.org/2000/svg" xmlns:xlink="http://www.w3.org/1999/xlink" width="20pt" height="20pt" viewBox="0 0 20 20" version="1.1">
<g id="surface1">
<path style=" stroke:none;fillRule:nonzero;fill:rgb(0%,0%,0%);fill-opacity:1;" d="M 13.265625 1.375 L 5 1.375 L 5 3.773438 L 3.398438 3.773438 L 3.398438 18.625 L 15 18.625 L 15 16.226562 L 16.601562 16.226562 L 16.601562 3.875 Z M 13.355469 1.941406 L 15.832031 3.800781 L 13.339844 3.800781 Z M 14.601562 15.824219 L 14.601562 18.226562 L 3.800781 18.226562 L 3.800781 4.175781 L 11.355469 4.175781 L 11.335938 6.601562 L 14.601562 6.601562 Z M 11.738281 6.199219 L 11.753906 4.339844 L 14.234375 6.199219 Z M 16.199219 15.824219 L 15 15.824219 L 15 6.273438 L 11.667969 3.773438 L 5.398438 3.773438 L 5.398438 1.773438 L 12.957031 1.773438 L 12.9375 4.199219 L 16.199219 4.199219 Z M 16.199219 15.824219 "/>
<path style=" stroke:none;fillRule:nonzero;fill:rgb(0%,0%,0%);fill-opacity:1;" d="M 5.398438 7.96875 L 9.175781 7.96875 L 9.175781 7.570312 L 5.175781 7.570312 L 5.175781 7.96875 Z M 5.398438 7.96875 "/>
<path style=" stroke:none;fillRule:nonzero;fill:rgb(0%,0%,0%);fill-opacity:1;" d="M 5.199219 9.167969 L 5.175781 9.167969 L 5.175781 9.570312 L 13.175781 9.570312 L 13.175781 9.167969 Z M 5.199219 9.167969 "/>
<path style=" stroke:none;fillRule:nonzero;fill:rgb(0%,0%,0%);fill-opacity:1;" d="M 5.199219 10.769531 L 5.175781 10.769531 L 5.175781 11.167969 L 13.175781 11.167969 L 13.175781 10.769531 Z M 5.199219 10.769531 "/>
<path style=" stroke:none;fillRule:nonzero;fill:rgb(0%,0%,0%);fill-opacity:1;" d="M 5.199219 12.367188 L 5.175781 12.367188 L 5.175781 12.769531 L 13.175781 12.769531 L 13.175781 12.367188 Z M 5.199219 12.367188 "/>
<path style=" stroke:none;fillRule:nonzero;fill:rgb(0%,0%,0%);fill-opacity:1;" d="M 5.199219 13.96875 L 5.175781 13.96875 L 5.175781 14.367188 L 13.175781 14.367188 L 13.175781 13.96875 Z M 5.199219 13.96875 "/>
</g>
</svg>
